<svg xmlns="http://www.w3.org/2000/svg" width="18" height="18" fill="none"><path fill="#e4405f" fill-rule="evenodd" d="M6.75 3A3.75 3.75 0 0 0 3 6.75v4.5A3.75 3.75 0 0 0 6.75 15h4.5A3.75 3.75 0 0 0 15 11.25v-4.5A3.75 3.75 0 0 0 11.25 3h-4.5zM1.5 6.75c0-2.9 2.35-5.25 5.25-5.25h4.5c2.9 0 5.25 2.35 5.25 5.25v4.5c0 2.9-2.35 5.25-5.25 5.25h-4.5a5.25 5.25 0 0 1-5.25-5.25v-4.5z" clip-rule="evenodd"/><path fill="#e4405f" fill-rule="evenodd" d="M9 6.75a2.25 2.25 0 1 0 0 4.5 2.25 2.25 0 0 0 0-4.5zM5.25 9a3.75 3.75 0 1 1 7.5 0 3.75 3.75 0 0 1-7.5 0z" clip-rule="evenodd"/><path fill="#e4405f" d="M12.75 5.918a.75.75 0 1 0 0-1.5.75.75 0 0 0 0 1.5z"/></svg>