<svg xmlns="http://www.w3.org/2000/svg" fill="none" viewBox="0 0 20 20"><path fill="#575757" fillRule="evenodd" d="M11.595.639a1.033 1.033 0 0 1 1.294.6 2.924 2.924 0 0 1-.23 2.468 3.25 3.25 0 0 1-2.054 1.563.75.75 0 0 1-.177.022 1.033 1.033 0 0 1-1.083-.635 2.808 2.808 0 0 1 .27-2.474 3.667 3.667 0 0 1 1.98-1.544zM11.559 2.3c-.27.172-.5.403-.673.68l-.004.007a1.307 1.307 0 0 0-.206.656 1.744 1.744 0 0 0 .677-.676l.01-.016a1.425 1.425 0 0 0 .196-.651z" clipRule="evenodd"/><path fill="#575757" fillRule="evenodd" d="M7.347 5.268a5.542 5.542 0 0 1 2.045.433h.001a2.8 2.8 0 0 0 .88.215c.246-.01.488-.06.717-.151a5.683 5.683 0 0 1 2.159-.448 4.975 4.975 0 0 1 3.746 1.96 1.167 1.167 0 0 1 .22.943 1.176 1.176 0 0 1-.552.76l-.016.01a2.066 2.066 0 0 0-.941 1.106l-.001.002a2.183 2.183 0 0 0 1.23 2.768 1.15 1.15 0 0 1 .49.35.75.75 0 0 1 .191.258 1.134 1.134 0 0 1 .007.921 11.669 11.669 0 0 1-1.08 2.018c-.412.572-.895 1.23-1.467 1.733-.582.513-1.319.922-2.234.895a3.384 3.384 0 0 1-1.548-.401 2.067 2.067 0 0 0-.947-.223l-.005-.75-.002.75a2.183 2.183 0 0 0-.987.232 3.458 3.458 0 0 1-1.567.4l-.016.001c-.861-.006-1.573-.402-2.136-.892-.556-.486-1.016-1.107-1.39-1.673A9.791 9.791 0 0 1 2.518 9.73a5.53 5.53 0 0 1 .75-2.02 5.042 5.042 0 0 1 4.08-2.443zm2.893 11.649a3.556 3.556 0 0 1 1.643.39l.015.008c.268.145.566.223.87.227l-.01.75.024-.75c.406.013.788-.156 1.203-.521.423-.374.813-.891 1.232-1.473.298-.45.56-.923.784-1.414a3.683 3.683 0 0 1-1.806-4.548 3.566 3.566 0 0 1 1.268-1.682 3.474 3.474 0 0 0-2.356-1.087 4.184 4.184 0 0 0-1.539.332l-.014.005a3.658 3.658 0 0 1-1.344.261 4.3 4.3 0 0 1-1.402-.333c-.45-.19-.93-.296-1.418-.315a3.542 3.542 0 0 0-2.838 1.718l-.005.008a4.033 4.033 0 0 0-.546 1.463 8.292 8.292 0 0 0 1.385 5.687l.007.01c.35.533.723 1.022 1.127 1.374.398.347.774.518 1.153.523.308-.006.61-.084.883-.229l.013-.007a3.682 3.682 0 0 1 1.671-.397z" clipRule="evenodd"/></svg>