<svg xmlns="http://www.w3.org/2000/svg" width="18" height="18" fill="none"><path fill="#0A66C2" fill-rule="evenodd" d="M6.75 3A3.75 3.75 0 0 0 3 6.75v4.5A3.75 3.75 0 0 0 6.75 15h4.5A3.75 3.75 0 0 0 15 11.25v-4.5A3.75 3.75 0 0 0 11.25 3h-4.5zM1.5 6.75c0-2.9 2.35-5.25 5.25-5.25h4.5c2.9 0 5.25 2.35 5.25 5.25v4.5c0 2.9-2.35 5.25-5.25 5.25h-4.5a5.25 5.25 0 0 1-5.25-5.25v-4.5z" clip-rule="evenodd"/><path fill="#0A66C2" fill-rule="evenodd" d="M5.723 7.418a.75.75 0 0 1 .75.75v4.5a.75.75 0 0 1-1.5 0v-4.5a.75.75 0 0 1 .75-.75zm4.312 1.5a1.5 1.5 0 0 0-1.5 1.5v2.25a.75.75 0 0 1-1.5 0v-2.25a3 3 0 1 1 6 0v2.25a.75.75 0 0 1-1.5 0v-2.25a1.5 1.5 0 0 0-1.5-1.5zM5.723 5.085a.75.75 0 0 1 .75.75v.083a.75.75 0 0 1-1.5 0v-.083a.75.75 0 0 1 .75-.75z" clip-rule="evenodd"/></svg>