<svg xmlns="http://www.w3.org/2000/svg" class="icon" viewBox="0 0 1024 1024"><path fill="#fff" line-width="2" d="M918.922 338.939c0-53.647-20.832-104.013-58.683-141.867-37.822-37.834-88.204-58.666-141.85-58.666-53.647 0-104.03 20.832-141.85 58.683l-427.13 426.987-1.742 2.645-2.133 2.329c-25.902 28.21-40.147 64.56-40.147 102.332 0 40.434 15.763 78.513 44.377 107.21 28.65 28.647 66.694 44.426 107.13 44.426 38.92 0 75.866-14.697 104.062-41.373 0 0 70.44 34.203 74.737 38.512 3.423 3.41 7.749 5.203 12.56 5.203 4.813 0 9.142-1.793 12.532-5.186L860.24 480.786c37.85-37.835 58.683-88.204 58.683-141.847z"/><path fill="#ffff" d="m134.038 742.877 494.209-494.064c37.821-37.85 88.203-58.683 141.85-58.683 41.211 0 80.452 12.403 113.587 35.252-6.91-10.01-14.661-19.523-23.445-28.31-37.822-37.834-88.204-58.666-141.85-58.666-53.647 0-104.03 20.832-141.85 58.683l-427.13 426.987-15.371 118.8z"/><path fill="#FFF" d="M640.067 342.233c4.005 2.567 7.848 5.522 11.337 9.025 25.806 25.727 25.999 67.504.873 93.664-.228.146-.453.225-.581.37 0 0-333.597 333.548-432.49 432.411 12.241 3.132 24.739 5.315 37.69 5.315 8.817 0 17.471-.986 25.998-2.457C421.967 741.862 701.21 463.347 701.21 463.347c.129-.162.354-.258.612-.403 27.034-28.099 26.838-72.961-.968-100.574-16.54-16.552-39.177-23.093-60.786-20.137z"/><path fill="#27323A" d="M864.922 192.405c-80.81-80.821-212.258-80.821-293.067 0L144.502 619.696c-.84.84-1.227 1.939-1.938 2.845-28.099 29.583-43.795 67.887-43.795 108.84 0 42.244 16.47 81.97 46.311 111.878 29.908 29.906 69.571 46.377 111.815 46.377s82.036-16.47 111.877-46.377c.129-.067.129-.196.258-.325.066-.063.129-.063.195-.129l338.733-338.604c.32-.258.71-.32.903-.645 42.31-42.309 42.31-111.103 0-153.413-42.309-42.309-111.102-42.309-153.412 0-.13.132-.13.261-.258.39L221.43 684.164c-9.495 9.496-9.495 24.867 0 34.428 9.496 9.496 24.87 9.496 34.366 0l333.76-333.695c.128-.13.195-.192.257-.32 23.383-23.386 61.366-23.386 84.685 0 23.058 22.995 23.253 60.33.774 83.712-.195.13-.387.196-.516.325l-339.898 339.83c-.13.062-.13.19-.192.32-.066.066-.195.066-.258.129-20.67 20.67-48.253 32.103-77.515 32.103s-56.712-11.433-77.32-32.103c-42.762-42.76-42.762-112.264-.062-155.027.387-.32.516-.84.774-1.226L606.22 226.77c61.882-61.819 162.454-61.819 224.335 0 61.815 61.882 61.815 162.517 0 224.336L431.04 850.494c-9.494 9.495-9.494 24.868 0 34.362 9.496 9.496 24.934 9.496 34.429 0l399.453-399.388c80.805-80.805 80.805-212.253 0-293.063z"/></svg>