<svg xmlns="http://www.w3.org/2000/svg" width="18" height="18" fill="none"><path fill="#575757" fill-rule="evenodd" d="M5.05 6.55a2.95 2.95 0 1 0 0 5.9 2.95 2.95 0 0 0 0-5.9zM1 9.5a4.05 4.05 0 1 1 8.1 0 4.05 4.05 0 0 1-8.1 0z" clip-rule="evenodd"/><path fill="#575757" fill-rule="evenodd" d="M10.613 7.298c-.306.536-.513 1.313-.513 2.202s.207 1.666.513 2.202c.316.552.667.748.937.748s.621-.196.937-.748c.306-.536.513-1.313.513-2.202s-.207-1.666-.513-2.202c-.316-.552-.667-.748-.937-.748s-.621.196-.937.748zm-.955-.546c.409-.715 1.057-1.302 1.892-1.302s1.483.587 1.892 1.302c.417.73.658 1.704.658 2.748 0 1.044-.24 2.017-.658 2.748-.409.715-1.057 1.302-1.892 1.302s-1.483-.587-1.892-1.302C9.241 11.518 9 10.544 9 9.5c0-1.044.24-2.017.658-2.748z" clip-rule="evenodd"/><path fill="#575757" fill-rule="evenodd" d="M14.498 5.756c.062-.089.24-.306.552-.306.313 0 .49.217.552.306.076.11.127.234.164.343.075.224.135.52.182.848.095.667.152 1.569.152 2.553s-.057 1.886-.152 2.553a4.98 4.98 0 0 1-.182.848 1.364 1.364 0 0 1-.164.343c-.062.089-.24.306-.552.306-.313 0-.49-.217-.552-.306a1.364 1.364 0 0 1-.164-.343 4.98 4.98 0 0 1-.182-.848C14.057 11.386 14 10.484 14 9.5s.057-1.886.152-2.553a4.98 4.98 0 0 1 .182-.848c.037-.109.088-.234.164-.343z" clip-rule="evenodd"/></svg>