<svg xmlns="http://www.w3.org/2000/svg" fill="none" viewBox="0 0 18 18"><path fill="#575757" d="m2.538 1.533.272-.46a.542.542 0 0 0-.738.193.53.53 0 0 0-.072.267h.538zm0 14.933H2a.53.53 0 0 0 .27.463.542.542 0 0 0 .54-.002l-.272-.46zM15.461 9l.272.46A.536.536 0 0 0 16 9a.53.53 0 0 0-.267-.46L15.46 9zM2 1.533v14.933h1.077V1.534H2zm.81 15.394 12.923-7.466-.543-.922-12.923 7.467.543.921zM15.733 8.54 2.81 1.073l-.543.921L15.19 9.461l.543-.922zm-12.84 6.195 8.615-7.466-.709-.802-8.615 7.466.709.802zM2.184 4.068l8.615 7.466.709-.802-8.615-7.466-.709.802z"/></svg>