<svg xmlns="http://www.w3.org/2000/svg" width="18" height="18" fill="none"><path fill="#0077B5" d="M14.664 2.248c-.18.013-.358.055-.525.125h-.002c-.16.064-.922.384-2.081.87l-4.153 1.75c-2.98 1.254-5.908 2.489-5.908 2.489l.035-.014s-.202.067-.413.211c-.13.083-.242.192-.33.32a.934.934 0 0 0-.155.624c.05.406.313.65.502.784.192.136.374.2.374.2h.004l2.747.925c.123.395.837 2.742 1.009 3.282.1.323.2.525.323.68.06.078.129.144.213.197.043.025.09.045.138.06l-.028-.007c.008.002.015.009.021.01.023.007.038.01.067.014.435.131.784-.139.784-.139l.02-.015 1.621-1.477 2.718 2.085.062.027c.566.248 1.14.11 1.443-.134.306-.246.425-.56.425-.56l.02-.05 2.1-10.761c.06-.266.075-.514.009-.755a1.017 1.017 0 0 0-.44-.59 1.055 1.055 0 0 0-.6-.151zM14.607 3.4c-.002.035.005.031-.01.1v.006l-2.082 10.648c-.009.015-.024.048-.065.081-.044.035-.08.057-.262-.015l-3.324-2.55-2.008 1.831.421-2.694 5.432-5.063c.224-.208.149-.252.149-.252.016-.255-.338-.074-.338-.074L5.67 9.66l-.001-.01-3.283-1.106v-.002l-.009-.002a.15.15 0 0 0 .017-.007l.018-.009.018-.006 5.91-2.49c1.492-.628 2.995-1.26 4.151-1.749.686-.289 1.372-.575 2.059-.86.046-.019.024-.02.057-.02z"/></svg>